<svg width="24" height="24" viewBox="0 0 24 24" fill="none" xmlns="http://www.w3.org/2000/svg">
<g clip-path="url(#clip0_4249_8618)">
<path d="M4 11.9795C4 13.0331 4.0157 14.0423 4.04152 14.9898C4.11316 17.6174 4.14898 18.9312 4.84202 20.0654C5.8599 21.7311 7.44299 22.6467 9.13266 21.4664C10.5188 20.4981 11.2119 20.014 12 20.014C12.788 20.014 13.4811 20.4981 14.8673 21.4664C16.5749 22.6593 18.1823 21.662 19.1579 20.0655C19.851 18.9313 19.8868 17.6175 19.9585 14.9898C19.9843 14.0423 20 13.0331 20 11.9795C20 10.4333 19.9324 9.08393 19.8323 7.93362C19.6566 5.91271 19.5687 4.90225 18.2747 3.61549C16.9807 2.32873 16.0099 2.24808 14.0685 2.08679C13.4199 2.03292 12.7265 2 12 2C11.2736 2 10.5802 2.03291 9.93167 2.08678C7.99009 2.24807 7.0193 2.32872 5.72529 3.6155C4.43128 4.90228 4.34339 5.9128 4.16763 7.93383C4.06759 9.0841 4 10.4334 4 11.9795Z" fill="currentColor"/>
</g>
<defs>
<clipPath id="clip0_4249_8618">
<rect width="24" height="24" fill="white"/>
</clipPath>
</defs>
</svg>
